<mxfile host="65bd71144e">
    <diagram id="5gMrNbhCcvMap2-kCo8e" name="Page-1">
        <mxGraphModel dx="1851" dy="512" grid="1" gridSize="10" guides="1" tooltips="1" connect="1" arrows="1" fold="1" page="1" pageScale="1" pageWidth="827" pageHeight="1169" math="0" shadow="0">
            <root>
                <mxCell id="0"/>
                <mxCell id="1" parent="0"/>
                <mxCell id="97" style="edgeStyle=none;html=1;entryX=0.5;entryY=0;entryDx=0;entryDy=0;" parent="1" source="66" target="73" edge="1">
                    <mxGeometry relative="1" as="geometry"/>
                </mxCell>
                <mxCell id="66" value="Start" style="strokeWidth=2;html=1;shape=mxgraph.flowchart.start_1;whiteSpace=wrap;" parent="1" vertex="1">
                    <mxGeometry x="-100" y="85" width="100" height="60" as="geometry"/>
                </mxCell>
                <mxCell id="67" value="Stop" style="strokeWidth=2;html=1;shape=mxgraph.flowchart.start_1;whiteSpace=wrap;" parent="1" vertex="1">
                    <mxGeometry x="85" y="80" width="100" height="60" as="geometry"/>
                </mxCell>
                <mxCell id="75" style="edgeStyle=none;rounded=0;html=1;entryX=0.5;entryY=1;entryDx=0;entryDy=0;entryPerimeter=0;fontSize=9;" parent="1" source="71" target="67" edge="1">
                    <mxGeometry relative="1" as="geometry"/>
                </mxCell>
                <mxCell id="71" value="&lt;font style=&quot;font-size: 12px;&quot;&gt;this.stackAsList.push(string)&lt;/font&gt;" style="rounded=1;whiteSpace=wrap;html=1;absoluteArcSize=1;arcSize=14;strokeWidth=2;fontSize=9;" parent="1" vertex="1">
                    <mxGeometry x="50" y="285" width="170" height="60" as="geometry"/>
                </mxCell>
                <mxCell id="72" value="push" style="text;html=1;align=center;verticalAlign=middle;resizable=0;points=[];autosize=1;strokeColor=none;fillColor=none;" parent="1" vertex="1">
                    <mxGeometry x="-15" y="50" width="50" height="30" as="geometry"/>
                </mxCell>
                <mxCell id="74" style="edgeStyle=none;rounded=0;html=1;" parent="1" source="73" target="71" edge="1">
                    <mxGeometry relative="1" as="geometry">
                        <Array as="points">
                            <mxPoint x="-50" y="315"/>
                        </Array>
                    </mxGeometry>
                </mxCell>
                <mxCell id="73" value="Set &lt;br&gt;stringPushed" style="shape=parallelogram;html=1;strokeWidth=2;perimeter=parallelogramPerimeter;whiteSpace=wrap;rounded=1;arcSize=12;size=0.23;" parent="1" vertex="1">
                    <mxGeometry x="-100" y="195" width="100" height="60" as="geometry"/>
                </mxCell>
                <mxCell id="98" style="edgeStyle=none;html=1;entryX=0.5;entryY=0;entryDx=0;entryDy=0;" parent="1" source="77" target="99" edge="1">
                    <mxGeometry relative="1" as="geometry">
                        <mxPoint x="430" y="235" as="targetPoint"/>
                    </mxGeometry>
                </mxCell>
                <mxCell id="77" value="Start" style="strokeWidth=2;html=1;shape=mxgraph.flowchart.start_1;whiteSpace=wrap;" parent="1" vertex="1">
                    <mxGeometry x="380" y="135" width="100" height="60" as="geometry"/>
                </mxCell>
                <mxCell id="78" value="Stop" style="strokeWidth=2;html=1;shape=mxgraph.flowchart.start_1;whiteSpace=wrap;" parent="1" vertex="1">
                    <mxGeometry x="545" y="140" width="100" height="60" as="geometry"/>
                </mxCell>
                <mxCell id="79" style="edgeStyle=none;html=1;entryX=0.5;entryY=0;entryDx=0;entryDy=0;fontSize=12;entryPerimeter=0;" parent="1" source="99" target="84" edge="1">
                    <mxGeometry relative="1" as="geometry">
                        <mxPoint x="430" y="294.9999999999999" as="sourcePoint"/>
                        <mxPoint x="430" y="334.9999999999999" as="targetPoint"/>
                    </mxGeometry>
                </mxCell>
                <mxCell id="83" value="showStack" style="text;html=1;align=center;verticalAlign=middle;resizable=0;points=[];autosize=1;strokeColor=none;fillColor=none;" parent="1" vertex="1">
                    <mxGeometry x="465" y="85" width="80" height="30" as="geometry"/>
                </mxCell>
                <mxCell id="87" style="edgeStyle=none;html=1;fontSize=6;" parent="1" source="84" target="86" edge="1">
                    <mxGeometry relative="1" as="geometry"/>
                </mxCell>
                <mxCell id="101" style="edgeStyle=elbowEdgeStyle;html=1;entryX=0.5;entryY=1;entryDx=0;entryDy=0;elbow=vertical;exitX=1;exitY=0.5;exitDx=0;exitDy=0;exitPerimeter=0;rounded=0;" parent="1" source="84" target="100" edge="1">
                    <mxGeometry relative="1" as="geometry">
                        <Array as="points">
                            <mxPoint x="595" y="425"/>
                        </Array>
                    </mxGeometry>
                </mxCell>
                <mxCell id="84" value="&lt;font style=&quot;font-size: 12px;&quot;&gt;for &lt;br&gt;(let counter = 1; counter &amp;lt; this.stackAsList.length; counter++)&lt;/font&gt;" style="strokeWidth=2;html=1;shape=mxgraph.flowchart.decision;whiteSpace=wrap;fontSize=6;" parent="1" vertex="1">
                    <mxGeometry x="315" y="330" width="230" height="190" as="geometry"/>
                </mxCell>
                <mxCell id="93" style="edgeStyle=elbowEdgeStyle;rounded=0;elbow=vertical;html=1;entryX=0;entryY=0.5;entryDx=0;entryDy=0;entryPerimeter=0;fontSize=12;" parent="1" source="86" target="84" edge="1">
                    <mxGeometry relative="1" as="geometry">
                        <Array as="points">
                            <mxPoint x="240" y="500"/>
                        </Array>
                    </mxGeometry>
                </mxCell>
                <mxCell id="86" value="stackItems = stackItems + &quot;, &quot; + this.stackAsList[counter]" style="rounded=1;whiteSpace=wrap;html=1;absoluteArcSize=1;arcSize=14;strokeWidth=2;fontSize=12;" parent="1" vertex="1">
                    <mxGeometry x="345" y="570" width="170" height="65" as="geometry"/>
                </mxCell>
                <mxCell id="90" value="Yes" style="text;html=1;align=center;verticalAlign=middle;resizable=0;points=[];autosize=1;strokeColor=none;fillColor=none;fontSize=12;" parent="1" vertex="1">
                    <mxGeometry x="450" y="520" width="40" height="30" as="geometry"/>
                </mxCell>
                <mxCell id="92" value="No" style="text;html=1;align=center;verticalAlign=middle;resizable=0;points=[];autosize=1;strokeColor=none;fillColor=none;fontSize=12;" parent="1" vertex="1">
                    <mxGeometry x="520" y="355" width="40" height="30" as="geometry"/>
                </mxCell>
                <mxCell id="99" value="stackItems = this.stackAsList[0]" style="rounded=1;whiteSpace=wrap;html=1;absoluteArcSize=1;arcSize=14;strokeWidth=2;" parent="1" vertex="1">
                    <mxGeometry x="370" y="240" width="120" height="50" as="geometry"/>
                </mxCell>
                <mxCell id="102" style="edgeStyle=elbowEdgeStyle;rounded=0;elbow=vertical;html=1;entryX=0.5;entryY=1;entryDx=0;entryDy=0;entryPerimeter=0;" parent="1" source="100" target="78" edge="1">
                    <mxGeometry relative="1" as="geometry"/>
                </mxCell>
                <mxCell id="100" value="return &lt;br&gt;stackItems" style="shape=parallelogram;html=1;strokeWidth=2;perimeter=parallelogramPerimeter;whiteSpace=wrap;rounded=1;arcSize=12;size=0.23;" parent="1" vertex="1">
                    <mxGeometry x="545" y="240" width="100" height="60" as="geometry"/>
                </mxCell>
                <mxCell id="103" style="edgeStyle=none;html=1;entryX=0.5;entryY=0;entryDx=0;entryDy=0;" edge="1" parent="1" source="104" target="115">
                    <mxGeometry relative="1" as="geometry">
                        <mxPoint x="890" y="220" as="targetPoint"/>
                    </mxGeometry>
                </mxCell>
                <mxCell id="104" value="Start" style="strokeWidth=2;html=1;shape=mxgraph.flowchart.start_1;whiteSpace=wrap;" vertex="1" parent="1">
                    <mxGeometry x="840" y="120" width="100" height="60" as="geometry"/>
                </mxCell>
                <mxCell id="105" value="Stop" style="strokeWidth=2;html=1;shape=mxgraph.flowchart.start_1;whiteSpace=wrap;" vertex="1" parent="1">
                    <mxGeometry x="1065" y="115" width="100" height="60" as="geometry"/>
                </mxCell>
                <mxCell id="106" style="edgeStyle=none;html=1;entryX=0.5;entryY=0;entryDx=0;entryDy=0;fontSize=12;entryPerimeter=0;" edge="1" parent="1" source="115" target="110">
                    <mxGeometry relative="1" as="geometry">
                        <mxPoint x="890" y="279.9999999999999" as="sourcePoint"/>
                        <mxPoint x="890" y="319.9999999999999" as="targetPoint"/>
                    </mxGeometry>
                </mxCell>
                <mxCell id="107" value="pop" style="text;html=1;align=center;verticalAlign=middle;resizable=0;points=[];autosize=1;strokeColor=none;fillColor=none;" vertex="1" parent="1">
                    <mxGeometry x="945" y="70" width="40" height="30" as="geometry"/>
                </mxCell>
                <mxCell id="108" style="edgeStyle=none;html=1;fontSize=6;" edge="1" parent="1" source="110" target="112">
                    <mxGeometry relative="1" as="geometry"/>
                </mxCell>
                <mxCell id="124" style="edgeStyle=none;html=1;entryX=0;entryY=0.5;entryDx=0;entryDy=0;" edge="1" parent="1" source="110" target="123">
                    <mxGeometry relative="1" as="geometry"/>
                </mxCell>
                <mxCell id="110" value="&lt;span style=&quot;font-size: 12px;&quot;&gt;if (this.stackAsList.length &amp;gt; 0)&lt;/span&gt;" style="strokeWidth=2;html=1;shape=mxgraph.flowchart.decision;whiteSpace=wrap;fontSize=6;" vertex="1" parent="1">
                    <mxGeometry x="775" y="315" width="230" height="190" as="geometry"/>
                </mxCell>
                <mxCell id="119" style="edgeStyle=none;html=1;" edge="1" parent="1" source="112" target="118">
                    <mxGeometry relative="1" as="geometry"/>
                </mxCell>
                <mxCell id="112" value="topItem = this.stackAsList[2]" style="rounded=1;whiteSpace=wrap;html=1;absoluteArcSize=1;arcSize=14;strokeWidth=2;fontSize=12;" vertex="1" parent="1">
                    <mxGeometry x="805" y="555" width="170" height="65" as="geometry"/>
                </mxCell>
                <mxCell id="113" value="Yes" style="text;html=1;align=center;verticalAlign=middle;resizable=0;points=[];autosize=1;strokeColor=none;fillColor=none;fontSize=12;" vertex="1" parent="1">
                    <mxGeometry x="910" y="505" width="40" height="30" as="geometry"/>
                </mxCell>
                <mxCell id="114" value="No" style="text;html=1;align=center;verticalAlign=middle;resizable=0;points=[];autosize=1;strokeColor=none;fillColor=none;fontSize=12;" vertex="1" parent="1">
                    <mxGeometry x="980" y="340" width="40" height="30" as="geometry"/>
                </mxCell>
                <mxCell id="115" value="returnValue:&lt;br&gt;&amp;nbsp;string = &quot;&quot;" style="rounded=1;whiteSpace=wrap;html=1;absoluteArcSize=1;arcSize=14;strokeWidth=2;" vertex="1" parent="1">
                    <mxGeometry x="830" y="225" width="120" height="50" as="geometry"/>
                </mxCell>
                <mxCell id="127" style="edgeStyle=none;html=1;entryX=0.5;entryY=1;entryDx=0;entryDy=0;entryPerimeter=0;" edge="1" parent="1" source="117" target="105">
                    <mxGeometry relative="1" as="geometry"/>
                </mxCell>
                <mxCell id="117" value="return &lt;br&gt;returnValue" style="shape=parallelogram;html=1;strokeWidth=2;perimeter=parallelogramPerimeter;whiteSpace=wrap;rounded=1;arcSize=12;size=0.23;" vertex="1" parent="1">
                    <mxGeometry x="1050" y="240" width="130" height="70" as="geometry"/>
                </mxCell>
                <mxCell id="121" style="edgeStyle=none;html=1;" edge="1" parent="1" source="118" target="120">
                    <mxGeometry relative="1" as="geometry"/>
                </mxCell>
                <mxCell id="118" value="&lt;div&gt;this.stackAsList.length = this.stackAsList.length - 1&lt;/div&gt;" style="rounded=1;whiteSpace=wrap;html=1;absoluteArcSize=1;arcSize=14;strokeWidth=2;fontSize=12;" vertex="1" parent="1">
                    <mxGeometry x="805" y="660" width="170" height="65" as="geometry"/>
                </mxCell>
                <mxCell id="128" style="edgeStyle=elbowEdgeStyle;html=1;entryX=1;entryY=0.5;entryDx=0;entryDy=0;elbow=vertical;rounded=0;" edge="1" parent="1" source="120" target="117">
                    <mxGeometry relative="1" as="geometry">
                        <Array as="points">
                            <mxPoint x="1230" y="560"/>
                            <mxPoint x="1070" y="800"/>
                        </Array>
                    </mxGeometry>
                </mxCell>
                <mxCell id="120" value="&lt;div&gt;returnValue = topItem&lt;/div&gt;" style="rounded=1;whiteSpace=wrap;html=1;absoluteArcSize=1;arcSize=14;strokeWidth=2;fontSize=12;" vertex="1" parent="1">
                    <mxGeometry x="805" y="760" width="170" height="65" as="geometry"/>
                </mxCell>
                <mxCell id="126" style="edgeStyle=none;html=1;" edge="1" parent="1" source="123" target="117">
                    <mxGeometry relative="1" as="geometry"/>
                </mxCell>
                <mxCell id="123" value="returnValue = &lt;br&gt;&quot;The stacks is empty!&quot;" style="shape=parallelogram;html=1;strokeWidth=2;perimeter=parallelogramPerimeter;whiteSpace=wrap;rounded=1;arcSize=12;size=0.23;" vertex="1" parent="1">
                    <mxGeometry x="1040" y="372.5" width="150" height="75" as="geometry"/>
                </mxCell>
            </root>
        </mxGraphModel>
    </diagram>
</mxfile>